<svg width="70" height="70" viewBox="0 0 70 70" fill="none" xmlns="http://www.w3.org/2000/svg">
<g filter="url(#filter0_f)">
<circle cx="24.5" cy="48.5" r="11.5" fill="#EC0B43" fill-opacity="0.6"/>
</g>
<path fill-rule="evenodd" clip-rule="evenodd" d="M41.9528 45.8927H46.4051C47.4769 45.8927 48.3839 44.9857 48.3839 43.8314V19.5913C48.3839 18.5194 47.4769 17.6125 46.4051 17.6125H30.987C29.9152 17.6125 29.0082 18.5194 29.0082 19.5913V23.8786H23.9788C22.907 23.8786 22 24.7856 22 25.8574V50.0976C22 51.1694 22.907 52.0764 23.9788 52.0764H39.3969C40.4687 52.0764 41.3757 51.1694 41.3757 50.0976V45.803C41.5591 45.8612 41.7531 45.8927 41.9528 45.8927ZM41.3757 42.0248C41.5591 41.9666 41.7531 41.9351 41.9528 41.9351H44.5087V21.5701H32.9658V23.8786H39.3969C40.4687 23.8786 41.3757 24.7856 41.3757 25.8574V42.0248ZM37.5005 48.2012H25.9576V27.8362H37.5005V48.2012Z" fill="white"/>
<defs>
<filter id="filter0_f" x="4" y="28" width="41" height="41" filterUnits="userSpaceOnUse" color-interpolation-filters="sRGB">
<feFlood flood-opacity="0" result="BackgroundImageFix"/>
<feBlend mode="normal" in="SourceGraphic" in2="BackgroundImageFix" result="shape"/>
<feGaussianBlur stdDeviation="4.5" result="effect1_foregroundBlur"/>
</filter>
</defs>
</svg>
