<svg width="70" height="70" viewBox="0 0 70 70" fill="none" xmlns="http://www.w3.org/2000/svg">
<g filter="url(#filter0_f)">
<circle cx="27.5" cy="38.5" r="11.5" fill="#EC0B43" fill-opacity="0.6"/>
</g>
<path d="M40.6003 46.5831H29.3167C28.0107 46.5831 26.966 45.5504 26.966 44.2594V42.1423C26.966 40.4383 26.3391 38.8375 25.1898 37.8048C22.3689 35.068 20.8018 31.1952 20.9585 27.2708C21.2719 20.2997 27.0182 14.4647 34.0704 14.0516C37.9883 13.7934 41.6973 15.136 44.5704 17.7695C47.3913 20.403 49.0107 24.0693 49.0107 27.8388C49.0107 31.6083 47.4958 35.1196 44.7794 37.7531C43.6301 38.8375 43.0033 40.4383 43.0033 42.0907V44.2078C42.951 45.5504 41.9063 46.5831 40.6003 46.5831ZM31.6674 41.9358H38.2495C38.3018 39.0957 39.451 36.3589 41.4361 34.4484C43.2645 32.6927 44.257 30.369 44.257 27.8388C44.257 25.2569 43.2122 22.8816 41.3316 21.1259C39.451 19.3703 36.9436 18.4924 34.3316 18.6473C29.6301 18.9572 25.8167 22.7783 25.6077 27.4257C25.5033 30.0592 26.548 32.5894 28.4286 34.3967C30.466 36.3589 31.6152 39.0957 31.6674 41.9358Z" fill="white"/>
<path d="M36.4627 55H33.4851C29.9328 55 27.0075 52.1083 27.0075 48.597V44.8791C27.0075 43.5882 28.0522 42.5554 29.3582 42.5554C30.6642 42.5554 31.709 43.5882 31.709 44.8791V48.597C31.709 49.5781 32.4925 50.3526 33.4851 50.3526H36.4627C37.4552 50.3526 38.2388 49.5781 38.2388 48.597V44.8791C38.2388 43.5882 39.2836 42.5554 40.5896 42.5554C41.8955 42.5554 42.9403 43.5882 42.9403 44.8791V48.597C42.9403 52.1599 40.0149 55 36.4627 55Z" fill="white"/>
<defs>
<filter id="filter0_f" x="7" y="18" width="41" height="41" filterUnits="userSpaceOnUse" color-interpolation-filters="sRGB">
<feFlood flood-opacity="0" result="BackgroundImageFix"/>
<feBlend mode="normal" in="SourceGraphic" in2="BackgroundImageFix" result="shape"/>
<feGaussianBlur stdDeviation="4.5" result="effect1_foregroundBlur"/>
</filter>
</defs>
</svg>
