<svg width="70" height="70" viewBox="0 0 70 70" fill="none" xmlns="http://www.w3.org/2000/svg">
<g filter="url(#filter0_f)">
<circle cx="30.5" cy="24.5" r="11.5" fill="#EC0B43" fill-opacity="0.6"/>
</g>
<path fill-rule="evenodd" clip-rule="evenodd" d="M40.7681 23.9036L40.7612 23.9036C39.1352 23.9053 37.6494 24.5193 36.5268 25.5248C36.4615 25.6082 36.39 25.6888 36.3122 25.7659C36.2377 25.8397 36.1594 25.9072 36.078 25.9686C35.0567 27.084 34.4331 28.5632 34.4331 30.1823C34.4331 31.6311 34.9324 32.9678 35.7692 34.0322C35.9939 34.152 36.2061 34.3072 36.3984 34.4979C36.5924 34.6901 36.75 34.9024 36.8714 35.1272C37.9473 35.9623 39.3008 36.461 40.7682 36.461C44.2578 36.461 47.1032 33.6409 47.1032 30.1823C47.1032 26.726 44.2616 23.9073 40.7751 23.9036L40.7681 23.9036ZM29.8746 32.6299C30.1462 33.8254 30.6126 34.9472 31.2391 35.961L29.723 37.4637C28.6872 38.4903 28.6872 40.0873 29.723 41.1139C30.2409 41.6272 30.8739 41.8553 31.5645 41.8553C32.255 41.8553 32.8881 41.6272 33.406 41.1139L34.9184 39.6149C35.9614 40.251 37.1184 40.7218 38.3522 40.9908V42.8461C38.3522 44.1763 39.426 45.2405 40.7681 45.2405C42.1103 45.2405 43.184 44.1763 43.184 42.8461V40.9908C44.4744 40.7095 45.6806 40.2075 46.7603 39.5266L48.0695 40.8241C48.5527 41.303 49.1433 41.5158 49.7875 41.5158C50.378 41.5158 51.0223 41.303 51.5055 40.8241C52.4718 39.8663 52.4718 38.3765 51.5055 37.4187L50.1963 36.1212C50.8738 35.0659 51.3758 33.8887 51.6617 32.6299H53.4919C54.834 32.6299 55.9077 31.5657 55.9077 30.2355C55.9077 28.9052 54.834 27.841 53.4919 27.841H51.6854C51.419 26.6121 50.9472 25.4594 50.3073 24.4199L52.7416 22.0072C53.7774 20.9806 53.7774 19.3836 52.7416 18.357C51.7058 17.3304 50.0945 17.3304 49.0586 18.357L46.6344 20.7597C45.5871 20.1185 44.4244 19.6441 43.184 19.3737V17.5717C43.184 16.2415 42.1103 15.1773 40.7681 15.1773C39.426 15.1773 38.3522 16.2415 38.3522 17.5717V19.3737C37.0619 19.655 35.8557 20.1571 34.776 20.838L33.5205 19.5936C32.5541 18.6359 31.0509 18.6359 30.0845 19.5936C29.1182 20.5514 29.1182 22.0413 30.0845 22.999L31.34 24.2434C30.6435 25.3284 30.1325 26.5421 29.8509 27.841H28.0444C26.7023 27.841 25.6285 28.9052 25.6285 30.2355C25.6285 31.5657 26.7023 32.6299 28.0444 32.6299H29.8746ZM22.5 56C21.1111 56 20 54.8806 20 53.4813V51H17.6866C16.194 51 15 49.8889 15 48.5C15 47.1111 16.194 46 17.6866 46H20V43.5187C20 42.1194 21.1111 41 22.5 41C23.8889 41 25 42.1194 25 43.5187V46H28.3134C29.806 46 31 47.1111 31 48.5C31 49.8889 29.7463 51 28.2537 51H25V53.4813C25 54.8806 23.8333 56 22.5 56Z" fill="white"/>
<defs>
<filter id="filter0_f" x="10" y="4" width="41" height="41" filterUnits="userSpaceOnUse" color-interpolation-filters="sRGB">
<feFlood flood-opacity="0" result="BackgroundImageFix"/>
<feBlend mode="normal" in="SourceGraphic" in2="BackgroundImageFix" result="shape"/>
<feGaussianBlur stdDeviation="4.5" result="effect1_foregroundBlur"/>
</filter>
</defs>
</svg>
