<svg width="70" height="70" viewBox="0 0 70 70" fill="none" xmlns="http://www.w3.org/2000/svg">
<g filter="url(#filter0_f)">
<circle cx="39.5" cy="29.5" r="11.5" fill="#EC0B43" fill-opacity="0.6"/>
</g>
<path fill-rule="evenodd" clip-rule="evenodd" d="M28.1116 40.3968C21.4183 40.3968 16 34.9276 16 28.2252C16 21.5228 21.4183 16 28.1116 16C34.8048 16 40.2231 21.4692 40.2231 28.2252C40.2231 30.6423 39.5228 32.8879 38.3191 34.7752L39.8778 36.3485L40.7012 35.5174C41.6574 34.5523 43.1448 34.5523 44.1009 35.5174L55.3094 46.8311C55.7344 47.2601 56 47.9035 56 48.5469C56 49.1904 55.7344 49.7802 55.3094 50.2627L50.3161 55.303C49.838 55.7855 49.2005 56 48.6162 56C47.9788 56 47.3944 55.7855 46.9163 55.303L35.7078 43.9893C35.2829 43.5603 35.0173 42.9169 35.0173 42.2735C35.0173 41.63 35.2829 41.0402 35.7078 40.5577L36.4781 39.7802L34.9671 38.255C33.012 39.6072 30.647 40.3968 28.1116 40.3968ZM41.414 41.6945L40.8074 42.3271L48.6162 50.2091L50.2629 48.5469L42.4011 40.6649L41.8358 41.2545C41.7661 41.3476 41.6889 41.4373 41.6042 41.5228C41.5433 41.5843 41.4797 41.6415 41.414 41.6945ZM28.1116 20.8257C24.0744 20.8257 20.7809 24.1501 20.7809 28.2252C20.7809 32.3003 24.0744 35.6247 28.1116 35.6247C32.1487 35.6247 35.4422 32.3003 35.4422 28.2252C35.4422 24.1501 32.0956 20.8257 28.1116 20.8257Z" fill="white"/>
<defs>
<filter id="filter0_f" x="19" y="9" width="41" height="41" filterUnits="userSpaceOnUse" color-interpolation-filters="sRGB">
<feFlood flood-opacity="0" result="BackgroundImageFix"/>
<feBlend mode="normal" in="SourceGraphic" in2="BackgroundImageFix" result="shape"/>
<feGaussianBlur stdDeviation="4.5" result="effect1_foregroundBlur"/>
</filter>
</defs>
</svg>
