<svg xmlns="http://www.w3.org/2000/svg" xmlns:xlink="http://www.w3.org/1999/xlink" viewBox="0 0 35.01 53.78"><defs><linearGradient id="linear-gradient" x1="-9.51" y1="31.58" x2="-8.17" y2="31.58" gradientTransform="translate(-2.54 -2.61) rotate(-21.71)" gradientUnits="userSpaceOnUse"><stop offset="0" stop-color="#c82040"/><stop offset="1" stop-color="#bb2f98"/></linearGradient><linearGradient id="linear-gradient-2" x1="-9.76" y1="31.58" x2="-7.92" y2="31.58" xlink:href="#linear-gradient"/><linearGradient id="linear-gradient-3" x1="-3.04" y1="31.58" x2="-1.7" y2="31.58" xlink:href="#linear-gradient"/><linearGradient id="linear-gradient-4" x1="-3.29" y1="31.58" x2="-1.45" y2="31.58" xlink:href="#linear-gradient"/><linearGradient id="linear-gradient-5" x1="3.44" y1="31.58" x2="4.78" y2="31.58" xlink:href="#linear-gradient"/><linearGradient id="linear-gradient-6" x1="3.19" y1="31.58" x2="5.03" y2="31.58" xlink:href="#linear-gradient"/><linearGradient id="linear-gradient-7" x1="9.92" y1="31.58" x2="11.26" y2="31.58" xlink:href="#linear-gradient"/><linearGradient id="linear-gradient-8" x1="9.67" y1="31.58" x2="11.51" y2="31.58" xlink:href="#linear-gradient"/><linearGradient id="linear-gradient-9" x1="16.4" y1="31.58" x2="17.73" y2="31.58" xlink:href="#linear-gradient"/><linearGradient id="linear-gradient-10" x1="16.15" y1="31.58" x2="17.98" y2="31.58" xlink:href="#linear-gradient"/><linearGradient id="linear-gradient-11" x1="-9.51" y1="36.5" x2="-8.17" y2="36.5" xlink:href="#linear-gradient"/><linearGradient id="linear-gradient-12" x1="-9.76" y1="36.5" x2="-7.92" y2="36.5" xlink:href="#linear-gradient"/><linearGradient id="linear-gradient-13" x1="-3.04" y1="36.5" x2="-1.7" y2="36.5" xlink:href="#linear-gradient"/><linearGradient id="linear-gradient-14" x1="-3.29" y1="36.5" x2="-1.45" y2="36.5" xlink:href="#linear-gradient"/><linearGradient id="linear-gradient-15" x1="3.44" y1="36.5" x2="4.78" y2="36.5" xlink:href="#linear-gradient"/><linearGradient id="linear-gradient-16" x1="3.19" y1="36.5" x2="5.03" y2="36.5" xlink:href="#linear-gradient"/><linearGradient id="linear-gradient-17" x1="9.92" y1="36.5" x2="11.26" y2="36.5" xlink:href="#linear-gradient"/><linearGradient id="linear-gradient-18" x1="9.67" y1="36.5" x2="11.51" y2="36.5" xlink:href="#linear-gradient"/><linearGradient id="linear-gradient-19" x1="16.4" y1="36.5" x2="17.73" y2="36.5" xlink:href="#linear-gradient"/><linearGradient id="linear-gradient-20" x1="16.15" y1="36.5" x2="17.98" y2="36.5" xlink:href="#linear-gradient"/><linearGradient id="linear-gradient-21" x1="-9.51" y1="41.42" x2="-8.17" y2="41.42" xlink:href="#linear-gradient"/><linearGradient id="linear-gradient-22" x1="-9.76" y1="41.42" x2="-7.92" y2="41.42" xlink:href="#linear-gradient"/><linearGradient id="linear-gradient-23" x1="-3.04" y1="41.42" x2="-1.7" y2="41.42" xlink:href="#linear-gradient"/><linearGradient id="linear-gradient-24" x1="-3.29" y1="41.42" x2="-1.45" y2="41.42" xlink:href="#linear-gradient"/><linearGradient id="linear-gradient-25" x1="3.44" y1="41.42" x2="4.78" y2="41.42" xlink:href="#linear-gradient"/><linearGradient id="linear-gradient-26" x1="3.19" y1="41.42" x2="5.03" y2="41.42" xlink:href="#linear-gradient"/><linearGradient id="linear-gradient-27" x1="9.92" y1="41.42" x2="11.26" y2="41.42" xlink:href="#linear-gradient"/><linearGradient id="linear-gradient-28" x1="9.67" y1="41.42" x2="11.51" y2="41.42" xlink:href="#linear-gradient"/><linearGradient id="linear-gradient-29" x1="16.4" y1="41.42" x2="17.73" y2="41.42" xlink:href="#linear-gradient"/><linearGradient id="linear-gradient-30" x1="16.15" y1="41.42" x2="17.98" y2="41.42" xlink:href="#linear-gradient"/><linearGradient id="linear-gradient-31" x1="-9.51" y1="46.35" x2="-8.17" y2="46.35" xlink:href="#linear-gradient"/><linearGradient id="linear-gradient-32" x1="-9.76" y1="46.35" x2="-7.92" y2="46.35" xlink:href="#linear-gradient"/><linearGradient id="linear-gradient-33" x1="-3.04" y1="46.35" x2="-1.7" y2="46.35" xlink:href="#linear-gradient"/><linearGradient id="linear-gradient-34" x1="-3.29" y1="46.35" x2="-1.45" y2="46.35" xlink:href="#linear-gradient"/><linearGradient id="linear-gradient-35" x1="3.44" y1="46.35" x2="4.78" y2="46.35" xlink:href="#linear-gradient"/><linearGradient id="linear-gradient-36" x1="3.19" y1="46.35" x2="5.03" y2="46.35" xlink:href="#linear-gradient"/><linearGradient id="linear-gradient-37" x1="9.92" y1="46.35" x2="11.26" y2="46.35" xlink:href="#linear-gradient"/><linearGradient id="linear-gradient-38" x1="9.67" y1="46.35" x2="11.51" y2="46.35" xlink:href="#linear-gradient"/><linearGradient id="linear-gradient-39" x1="16.4" y1="46.35" x2="17.73" y2="46.35" xlink:href="#linear-gradient"/><linearGradient id="linear-gradient-40" x1="16.15" y1="46.35" x2="17.98" y2="46.35" xlink:href="#linear-gradient"/><linearGradient id="linear-gradient-41" x1="-9.51" y1="51.27" x2="-8.17" y2="51.27" xlink:href="#linear-gradient"/><linearGradient id="linear-gradient-42" x1="-9.76" y1="51.27" x2="-7.92" y2="51.27" xlink:href="#linear-gradient"/><linearGradient id="linear-gradient-43" x1="-3.04" y1="51.27" x2="-1.7" y2="51.27" xlink:href="#linear-gradient"/><linearGradient id="linear-gradient-44" x1="-3.29" y1="51.27" x2="-1.45" y2="51.27" xlink:href="#linear-gradient"/><linearGradient id="linear-gradient-45" x1="3.44" y1="51.27" x2="4.78" y2="51.27" xlink:href="#linear-gradient"/><linearGradient id="linear-gradient-46" x1="3.19" y1="51.27" x2="5.03" y2="51.27" xlink:href="#linear-gradient"/><linearGradient id="linear-gradient-47" x1="9.92" y1="51.27" x2="11.26" y2="51.27" xlink:href="#linear-gradient"/><linearGradient id="linear-gradient-48" x1="9.67" y1="51.27" x2="11.51" y2="51.27" xlink:href="#linear-gradient"/><linearGradient id="linear-gradient-49" x1="16.4" y1="51.27" x2="17.73" y2="51.27" xlink:href="#linear-gradient"/><linearGradient id="linear-gradient-50" x1="16.15" y1="51.27" x2="17.98" y2="51.27" xlink:href="#linear-gradient"/><linearGradient id="linear-gradient-51" x1="-9.51" y1="56.19" x2="-8.17" y2="56.19" xlink:href="#linear-gradient"/><linearGradient id="linear-gradient-52" x1="-9.76" y1="56.19" x2="-7.92" y2="56.19" xlink:href="#linear-gradient"/><linearGradient id="linear-gradient-53" x1="-3.04" y1="56.19" x2="-1.7" y2="56.19" xlink:href="#linear-gradient"/><linearGradient id="linear-gradient-54" x1="-3.29" y1="56.19" x2="-1.45" y2="56.19" xlink:href="#linear-gradient"/><linearGradient id="linear-gradient-55" x1="3.44" y1="56.19" x2="4.78" y2="56.19" xlink:href="#linear-gradient"/><linearGradient id="linear-gradient-56" x1="3.19" y1="56.19" x2="5.03" y2="56.19" xlink:href="#linear-gradient"/><linearGradient id="linear-gradient-57" x1="9.92" y1="56.19" x2="11.26" y2="56.19" xlink:href="#linear-gradient"/><linearGradient id="linear-gradient-58" x1="9.67" y1="56.19" x2="11.51" y2="56.19" xlink:href="#linear-gradient"/><linearGradient id="linear-gradient-59" x1="16.4" y1="56.19" x2="17.73" y2="56.19" xlink:href="#linear-gradient"/><linearGradient id="linear-gradient-60" x1="16.15" y1="56.19" x2="17.98" y2="56.19" xlink:href="#linear-gradient"/><linearGradient id="linear-gradient-61" x1="14.31" y1="18.24" x2="25.7" y2="18.24" xlink:href="#linear-gradient"/></defs><title>dr2</title><g id="Layer_2" data-name="Layer 2"><g id="OBJECTS"><path d="M1.54,29.75a.66.66,0,0,1-.37.87.67.67,0,1,1,.37-.87Z" style="stroke-miterlimit:10;stroke-width:0.5px;fill:url(#linear-gradient);stroke:url(#linear-gradient-2)"/><path d="M7.56,27.36A.67.67,0,1,1,6.69,27,.67.67,0,0,1,7.56,27.36Z" style="stroke-miterlimit:10;stroke-width:0.5px;fill:url(#linear-gradient-3);stroke:url(#linear-gradient-4)"/><path d="M13.58,25a.67.67,0,0,1-1.25.5.67.67,0,0,1,1.25-.5Z" style="stroke-miterlimit:10;stroke-width:0.5px;fill:url(#linear-gradient-5);stroke:url(#linear-gradient-6)"/><path d="M19.6,22.57a.67.67,0,1,1-.87-.38A.67.67,0,0,1,19.6,22.57Z" style="stroke-miterlimit:10;stroke-width:0.5px;fill:url(#linear-gradient-7);stroke:url(#linear-gradient-8)"/><path d="M25.61,20.17a.67.67,0,1,1-1.24.49.66.66,0,0,1,.37-.86A.66.66,0,0,1,25.61,20.17Z" style="stroke-miterlimit:10;stroke-width:0.5px;fill:url(#linear-gradient-9);stroke:url(#linear-gradient-10)"/><path d="M3.36,34.33a.66.66,0,0,1-.37.86.66.66,0,0,1-.87-.37A.67.67,0,0,1,2.49,34,.66.66,0,0,1,3.36,34.33Z" style="stroke-miterlimit:10;stroke-width:0.5px;fill:url(#linear-gradient-11);stroke:url(#linear-gradient-12)"/><path d="M9.38,31.93A.67.67,0,0,1,9,32.8a.67.67,0,0,1-.5-1.24A.67.67,0,0,1,9.38,31.93Z" style="stroke-miterlimit:10;stroke-width:0.5px;fill:url(#linear-gradient-13);stroke:url(#linear-gradient-14)"/><path d="M15.4,29.53a.67.67,0,0,1-1.25.5.67.67,0,0,1,1.25-.5Z" style="stroke-miterlimit:10;stroke-width:0.5px;fill:url(#linear-gradient-15);stroke:url(#linear-gradient-16)"/><path d="M21.42,27.14A.68.68,0,0,1,21,28a.67.67,0,1,1,.38-.87Z" style="stroke-miterlimit:10;stroke-width:0.5px;fill:url(#linear-gradient-17);stroke:url(#linear-gradient-18)"/><path d="M27.43,24.74a.66.66,0,0,1-.37.87.67.67,0,0,1-.87-.37.67.67,0,0,1,1.24-.5Z" style="stroke-miterlimit:10;stroke-width:0.5px;fill:url(#linear-gradient-19);stroke:url(#linear-gradient-20)"/><path d="M5.18,38.9a.67.67,0,1,1-.87-.38A.67.67,0,0,1,5.18,38.9Z" style="stroke-miterlimit:10;stroke-width:0.5px;fill:url(#linear-gradient-21);stroke:url(#linear-gradient-22)"/><path d="M11.2,36.5a.67.67,0,1,1-.87-.37A.67.67,0,0,1,11.2,36.5Z" style="stroke-miterlimit:10;stroke-width:0.5px;fill:url(#linear-gradient-23);stroke:url(#linear-gradient-24)"/><path d="M17.22,34.11a.67.67,0,0,1-.38.87A.68.68,0,0,1,16,34.6a.68.68,0,0,1,.38-.87A.68.68,0,0,1,17.22,34.11Z" style="stroke-miterlimit:10;stroke-width:0.5px;fill:url(#linear-gradient-25);stroke:url(#linear-gradient-26)"/><path d="M23.24,31.71a.67.67,0,0,1-1.25.5.67.67,0,0,1,1.25-.5Z" style="stroke-miterlimit:10;stroke-width:0.5px;fill:url(#linear-gradient-27);stroke:url(#linear-gradient-28)"/><path d="M29.25,29.32a.66.66,0,0,1-.37.86.67.67,0,1,1-.5-1.24A.66.66,0,0,1,29.25,29.32Z" style="stroke-miterlimit:10;stroke-width:0.5px;fill:url(#linear-gradient-29);stroke:url(#linear-gradient-30)"/><path d="M7,43.47a.67.67,0,1,1-1.24.5A.67.67,0,1,1,7,43.47Z" style="stroke-miterlimit:10;stroke-width:0.5px;fill:url(#linear-gradient-31);stroke:url(#linear-gradient-32)"/><path d="M13,41.08a.66.66,0,0,1-.37.86.66.66,0,0,1-.87-.37A.67.67,0,1,1,13,41.08Z" style="stroke-miterlimit:10;stroke-width:0.5px;fill:url(#linear-gradient-33);stroke:url(#linear-gradient-34)"/><path d="M19,38.68a.67.67,0,1,1-.87-.37A.67.67,0,0,1,19,38.68Z" style="stroke-miterlimit:10;stroke-width:0.5px;fill:url(#linear-gradient-35);stroke:url(#linear-gradient-36)"/><path d="M25.06,36.28a.67.67,0,0,1-1.25.5.67.67,0,0,1,1.25-.5Z" style="stroke-miterlimit:10;stroke-width:0.5px;fill:url(#linear-gradient-37);stroke:url(#linear-gradient-38)"/><path d="M31.07,33.89a.67.67,0,1,1-.86-.38A.66.66,0,0,1,31.07,33.89Z" style="stroke-miterlimit:10;stroke-width:0.5px;fill:url(#linear-gradient-39);stroke:url(#linear-gradient-40)"/><path d="M8.82,48a.66.66,0,0,1-.37.87A.67.67,0,1,1,8,47.67.66.66,0,0,1,8.82,48Z" style="stroke-miterlimit:10;stroke-width:0.5px;fill:url(#linear-gradient-41);stroke:url(#linear-gradient-42)"/><path d="M14.84,45.65a.67.67,0,1,1-.87-.38A.67.67,0,0,1,14.84,45.65Z" style="stroke-miterlimit:10;stroke-width:0.5px;fill:url(#linear-gradient-43);stroke:url(#linear-gradient-44)"/><path d="M20.86,43.25a.67.67,0,1,1-.87-.37A.67.67,0,0,1,20.86,43.25Z" style="stroke-miterlimit:10;stroke-width:0.5px;fill:url(#linear-gradient-45);stroke:url(#linear-gradient-46)"/><path d="M26.88,40.86a.67.67,0,1,1-.87-.38A.68.68,0,0,1,26.88,40.86Z" style="stroke-miterlimit:10;stroke-width:0.5px;fill:url(#linear-gradient-47);stroke:url(#linear-gradient-48)"/><path d="M32.9,38.46a.68.68,0,0,1-.38.87.67.67,0,0,1-.87-.37.66.66,0,0,1,.38-.87A.67.67,0,0,1,32.9,38.46Z" style="stroke-miterlimit:10;stroke-width:0.5px;fill:url(#linear-gradient-49);stroke:url(#linear-gradient-50)"/><path d="M10.64,52.62a.67.67,0,1,1-.87-.38A.67.67,0,0,1,10.64,52.62Z" style="stroke-miterlimit:10;stroke-width:0.5px;fill:url(#linear-gradient-51);stroke:url(#linear-gradient-52)"/><path d="M16.66,50.22a.67.67,0,0,1-.37.87.67.67,0,1,1,.37-.87Z" style="stroke-miterlimit:10;stroke-width:0.5px;fill:url(#linear-gradient-53);stroke:url(#linear-gradient-54)"/><path d="M22.68,47.83a.66.66,0,0,1-.37.86.66.66,0,0,1-.87-.37.67.67,0,1,1,1.24-.49Z" style="stroke-miterlimit:10;stroke-width:0.5px;fill:url(#linear-gradient-55);stroke:url(#linear-gradient-56)"/><path d="M28.7,45.43a.68.68,0,0,1-.38.87.67.67,0,1,1,.38-.87Z" style="stroke-miterlimit:10;stroke-width:0.5px;fill:url(#linear-gradient-57);stroke:url(#linear-gradient-58)"/><path d="M34.72,43a.67.67,0,0,1-1.25.5.67.67,0,0,1,1.25-.5Z" style="stroke-miterlimit:10;stroke-width:0.5px;fill:url(#linear-gradient-59);stroke:url(#linear-gradient-60)"/><path d="M29.59,9.86h0a1.56,1.56,0,0,1-2.05.82L16.8,6.05A1.55,1.55,0,0,1,16,4h0A1.56,1.56,0,0,1,18,3.19L28.78,7.81A1.56,1.56,0,0,1,29.59,9.86Z" style="fill:url(#linear-gradient-61)"/><path d="M19.86,13.74h0A1.56,1.56,0,0,1,19,11.69L23.67.94a1.56,1.56,0,0,1,2-.81h0a1.56,1.56,0,0,1,.81,2.05L21.91,12.92A1.56,1.56,0,0,1,19.86,13.74Z" style="fill:url(#linear-gradient-61)"/></g></g></svg>