<svg width="1920" height="1080" viewBox="0 0 1920 1080" fill="none" xmlns="http://www.w3.org/2000/svg">
<g clip-path="url(#clip0)">
<path d="M933.2 -18.1265C930.259 260.49 1290.28 103.915 1174.1 485.256C1057.91 866.598 1476.18 626.613 1681.78 934.789C1900.91 1262.57 2099.45 1155.17 2099.45 1155.17V-13.1512L933.2 -18.1265Z" fill="url(#paint0_linear)" fill-opacity="0.15"/>
<path opacity="0.46" d="M1454.41 -84.561C1454.41 -84.561 1618.83 3.23828 1541.18 257.856C1479.12 461.258 1709.43 539.399 1932.38 449.259V-39.4907L1454.41 -84.561Z" fill="url(#paint1_linear)" fill-opacity="0.15"/>
<path d="M807.31 1090.19C907.316 1033.71 1125.86 1064.44 1173.8 893.231C1245.87 635.686 1419.11 877.719 1472.06 585.055C1521.47 311.706 1948.56 772.36 1983.86 292.391V1102.78L807.31 1090.19Z" fill="url(#paint2_linear)" fill-opacity="0.15"/>
<path opacity="0.46" d="M1364.4 -117.632C1364.4 -117.632 1267.34 208.103 1595.3 180.008C1851.2 158.058 1763.84 441.942 2023.27 345.363V-84.561L1364.4 -117.632Z" fill="url(#paint3_linear)" fill-opacity="0.15"/>
<path d="M1082.62 405.066C1131.84 405.066 1171.74 365.364 1171.74 316.389C1171.74 267.414 1131.84 227.712 1082.62 227.712C1033.4 227.712 993.498 267.414 993.498 316.389C993.498 365.364 1033.4 405.066 1082.62 405.066Z" fill="url(#paint4_linear)" fill-opacity="0.15"/>
<path d="M1372.64 962.592C1406.27 962.592 1433.53 935.469 1433.53 902.01C1433.53 868.552 1406.27 841.429 1372.64 841.429C1339.01 841.429 1311.75 868.552 1311.75 902.01C1311.75 935.469 1339.01 962.592 1372.64 962.592Z" fill="url(#paint5_linear)" fill-opacity="0.15"/>
<path d="M1182.04 767.97C1194.22 767.97 1204.1 758.143 1204.1 746.021C1204.1 733.898 1194.22 724.071 1182.04 724.071C1169.86 724.071 1159.98 733.898 1159.98 746.021C1159.98 758.143 1169.86 767.97 1182.04 767.97Z" fill="url(#paint6_linear)" fill-opacity="0.15"/>
<path d="M1832.67 141.084C1887.74 141.084 1932.38 96.6644 1932.38 41.8705C1932.38 -12.9235 1887.74 -57.3428 1832.67 -57.3428C1777.6 -57.3428 1732.96 -12.9235 1732.96 41.8705C1732.96 96.6644 1777.6 141.084 1832.67 141.084Z" fill="url(#paint7_linear)" fill-opacity="0.15"/>
<path d="M1336.17 461.258C1350.95 461.258 1362.93 449.334 1362.93 434.626C1362.93 419.917 1350.95 407.993 1336.17 407.993C1321.38 407.993 1309.4 419.917 1309.4 434.626C1309.4 449.334 1321.38 461.258 1336.17 461.258Z" fill="url(#paint8_linear)" fill-opacity="0.15"/>
<path d="M511.408 1137.02C511.408 1137.02 508.467 819.187 770.248 902.011C1032.03 984.835 1083.21 949.715 1138.51 870.696C1193.81 791.676 1426.47 891.182 1260.28 1166.29L511.408 1137.02Z" fill="url(#paint9_linear)" fill-opacity="0.15"/>
<g opacity="0.5">
<path opacity="0.5" d="M933.2 -75.1958C933.2 -75.1958 945.554 151.912 1540 213.079C2032.09 263.709 1367.93 1159.26 1367.93 1159.26" stroke="white" stroke-opacity="0.6" stroke-width="0.25" stroke-miterlimit="10"/>
<path opacity="0.5" d="M950.848 -72.8545C950.848 -72.8545 952.613 160.692 1535 228.59C1834.14 263.417 1719.13 592.372 1582.07 853.428C1495.3 1019.37 1397.64 1153.12 1397.05 1158.38" stroke="white" stroke-opacity="0.6" stroke-width="0.2742" stroke-miterlimit="10"/>
<path opacity="0.5" d="M968.202 -70.8054C968.202 -70.8054 959.084 169.179 1529.71 243.809C1826.79 282.733 1728.55 592.957 1602.36 850.502C1522.36 1014.1 1427.35 1146.97 1426.17 1157.21" stroke="white" stroke-opacity="0.6" stroke-width="0.2984" stroke-miterlimit="10"/>
<path opacity="0.5" d="M985.851 -68.4644C985.851 -68.4644 966.143 177.959 1524.71 259.32C1819.73 302.341 1738.25 593.835 1622.66 847.868C1549.42 1009.13 1457.06 1141.12 1455.29 1156.04" stroke="white" stroke-opacity="0.6" stroke-width="0.3226" stroke-miterlimit="10"/>
<path opacity="0.5" d="M1003.2 -66.1226C1003.2 -66.1226 972.909 187.325 1519.12 274.831C1812.37 321.95 1747.66 595.006 1642.66 845.234C1576.18 1004.44 1486.77 1134.97 1484.12 1155.17" stroke="white" stroke-opacity="0.6" stroke-width="0.3468" stroke-miterlimit="10"/>
<path opacity="0.5" d="M1020.85 -64.074C1020.85 -64.074 979.968 196.105 1514.12 290.05C1805.61 341.266 1757.37 595.592 1662.95 842.308C1603.24 999.176 1516.47 1128.83 1513.24 1154" stroke="white" stroke-opacity="0.6" stroke-width="0.371" stroke-miterlimit="10"/>
<path opacity="0.5" d="M1038.5 -61.7327C1038.5 -61.7327 987.027 205.763 1509.12 305.561C1798.84 360.875 1767.08 596.469 1683.54 839.674C1630.6 994.2 1546.47 1122.68 1542.65 1153.12" stroke="white" stroke-opacity="0.6" stroke-width="0.3952" stroke-miterlimit="10"/>
<path opacity="0.5" d="M1055.85 -59.3921C1055.85 -59.3921 993.792 215.42 1503.83 321.072C1791.78 380.775 1776.49 597.639 1703.54 837.039C1657.36 989.224 1575.89 1116.83 1571.48 1152.24" stroke="white" stroke-opacity="0.6" stroke-width="0.4194" stroke-miterlimit="10"/>
<path opacity="0.5" d="M1073.5 -57.0508C1073.5 -57.0508 1000.85 225.078 1498.82 336.29C1785.02 400.091 1786.2 598.225 1724.13 834.112C1685.01 984.249 1606.18 1110.39 1600.89 1151.07" stroke="white" stroke-opacity="0.6" stroke-width="0.4435" stroke-miterlimit="10"/>
<path opacity="0.5" d="M1091.15 -55.0022C1091.15 -55.0022 1007.91 234.736 1493.82 351.509C1778.25 419.699 1796.2 598.81 1744.43 831.186C1712.07 978.981 1635.89 1104.24 1630.01 1149.6" stroke="white" stroke-opacity="0.6" stroke-width="0.4677" stroke-miterlimit="10"/>
<path opacity="0.5" d="M1108.51 -52.6609C1108.51 -52.6609 1014.68 244.979 1488.53 367.02C1771.2 439.893 1805.61 599.981 1764.43 828.551C1738.84 974.006 1665.31 1098.39 1658.84 1148.73" stroke="white" stroke-opacity="0.6" stroke-width="0.4919" stroke-miterlimit="10"/>
<path opacity="0.5" d="M1126.15 -50.3193C1126.15 -50.3193 1021.74 255.515 1483.53 382.531C1764.43 459.795 1815.32 600.859 1785.02 825.918C1766.19 969.323 1695.31 1092.24 1688.25 1147.85" stroke="white" stroke-opacity="0.6" stroke-width="0.5161" stroke-miterlimit="10"/>
<path opacity="0.5" d="M1143.8 -48.271C1143.8 -48.271 1028.79 265.758 1478.53 397.749C1757.66 479.695 1825.02 601.444 1805.32 822.991C1793.26 964.055 1725.02 1086.1 1717.66 1146.68" stroke="white" stroke-opacity="0.6" stroke-width="0.5403" stroke-miterlimit="10"/>
<path opacity="0.5" d="M1161.16 -45.9294C1161.16 -45.9294 1035.56 276.587 1473.23 413.261C1750.61 499.89 1834.43 602.322 1825.61 820.357C1820.32 959.08 1755.02 1079.95 1746.78 1145.8" stroke="white" stroke-opacity="0.6" stroke-width="0.5645" stroke-miterlimit="10"/>
<path opacity="0.5" d="M1178.8 -43.5881C1178.8 -43.5881 1042.62 287.415 1468.23 428.772C1743.84 520.376 1843.85 603.493 1845.91 817.723C1847.38 954.105 1784.73 1074.1 1775.9 1144.92" stroke="white" stroke-opacity="0.6" stroke-width="0.5887" stroke-miterlimit="10"/>
<path opacity="0.5" d="M1196.45 -41.5393C1196.45 -41.5393 1049.68 298.244 1463.23 443.991C1737.08 540.277 1853.55 604.078 1866.5 814.797C1874.73 949.129 1814.73 1067.66 1805.32 1143.75" stroke="white" stroke-opacity="0.6" stroke-width="0.6129" stroke-miterlimit="10"/>
<path opacity="0.5" d="M1213.81 -39.198C1213.81 -39.198 1056.15 309.658 1457.94 459.209C1730.02 560.764 1862.97 604.956 1886.5 811.87C1901.5 943.862 1844.14 1061.51 1834.14 1142.29" stroke="white" stroke-opacity="0.6" stroke-width="0.6371" stroke-miterlimit="10"/>
<path opacity="0.5" d="M1231.45 -36.8567C1231.45 -36.8567 1063.21 321.072 1452.65 474.721C1722.96 581.25 1872.38 605.834 1906.79 809.236C1928.56 938.886 1873.85 1055.66 1863.26 1141.41" stroke="white" stroke-opacity="0.6" stroke-width="0.6613" stroke-miterlimit="10"/>
<path opacity="0.5" d="M1249.1 -34.5156C1249.1 -34.5156 1069.97 332.778 1447.65 490.231C1716.19 602.029 1882.38 607.005 1927.09 806.602C1955.62 934.203 1903.85 1049.51 1892.38 1140.53" stroke="white" stroke-opacity="0.6" stroke-width="0.6855" stroke-miterlimit="10"/>
<path opacity="0.5" d="M1266.46 -32.4663C1266.46 -32.4663 1076.44 344.485 1442.35 505.451C1709.13 622.809 1891.79 607.591 1947.38 803.676C1982.68 928.936 1933.56 1043.37 1921.5 1139.36" stroke="white" stroke-opacity="0.6" stroke-width="0.7097" stroke-miterlimit="10"/>
<path opacity="0.5" d="M1284.11 -30.1255C1284.11 -30.1255 1082.92 356.484 1437.35 520.962C1702.07 643.881 1901.5 608.468 1967.68 801.041C2010.03 923.96 1963.27 1037.22 1950.62 1138.48" stroke="white" stroke-opacity="0.6" stroke-width="0.7339" stroke-miterlimit="10"/>
<path opacity="0.5" d="M1301.75 -27.7842C1301.75 -27.7842 1089.68 368.776 1432.35 536.473C1695.01 664.952 1911.79 609.346 1987.97 798.407C2037.39 918.985 1992.97 1031.37 1979.74 1137.61" stroke="white" stroke-opacity="0.6" stroke-width="0.7581" stroke-miterlimit="10"/>
<path opacity="0.5" d="M1319.11 -25.7356C1319.11 -25.7356 1095.86 380.775 1427.06 551.691C1687.66 686.024 1921.2 610.224 2008.27 795.48C2064.45 914.01 2022.68 1025.22 2008.86 1136.14" stroke="white" stroke-opacity="0.6" stroke-width="0.7823" stroke-miterlimit="10"/>
<path opacity="0.5" d="M1336.76 -23.3943C1336.76 -23.3943 1102.03 393.36 1422.06 567.202C1680.31 707.389 1930.91 611.102 2028.56 792.847C2091.51 909.034 2052.68 1019.08 2037.98 1135.26" stroke="white" stroke-opacity="0.6" stroke-width="0.8065" stroke-miterlimit="10"/>
<path opacity="0.5" d="M1354.4 -21.053C1354.4 -21.053 1108.21 405.944 1417.05 582.421C1672.95 728.753 1940.62 611.687 2049.15 789.92C2118.86 903.766 2082.69 1012.93 2067.39 1134.09" stroke="white" stroke-opacity="0.6" stroke-width="0.8306" stroke-miterlimit="10"/>
<path opacity="0.5" d="M1371.76 -19.0044C1371.76 -19.0044 1114.09 418.529 1411.76 597.639C1665.31 750.117 1950.03 612.565 2069.16 786.993C2145.63 898.498 2112.1 1006.49 2096.22 1132.92" stroke="white" stroke-opacity="0.6" stroke-width="0.8548" stroke-miterlimit="10"/>
<path opacity="0.5" d="M1389.41 -16.6631C1389.41 -16.6631 1119.98 431.406 1406.76 613.151C1657.66 772.067 1960.03 613.443 2089.75 784.359C2172.99 893.816 2142.1 1000.64 2125.63 1132.04" stroke="white" stroke-opacity="0.6" stroke-width="0.879" stroke-miterlimit="10"/>
<path opacity="0.5" d="M1407.05 -14.3213C1407.05 -14.3213 1125.86 444.576 1401.76 628.662C1649.72 794.31 1969.74 614.322 2110.04 781.726C2200.34 888.841 2171.81 994.493 2154.75 1131.17" stroke="white" stroke-opacity="0.6" stroke-width="0.9032" stroke-miterlimit="10"/>
<path opacity="0.5" d="M1424.41 -12.2732C1424.41 -12.2732 1131.15 457.161 1396.47 643.88C1641.48 816.26 1979.15 615.199 2130.34 778.799C2227.4 883.572 2201.81 988.346 2183.87 1130" stroke="white" stroke-opacity="0.6" stroke-width="0.9274" stroke-miterlimit="10"/>
<path opacity="0.5" d="M1442.06 -9.9314C1442.06 -9.9314 1136.45 470.331 1391.17 659.392C1632.95 838.503 1988.56 616.078 2150.34 776.165C2254.17 878.89 2231.22 982.493 2212.99 1128.83" stroke="white" stroke-opacity="0.6" stroke-width="0.9516" stroke-miterlimit="10"/>
<path opacity="0.5" d="M1459.7 -7.59009C1459.7 -7.59009 1141.74 483.501 1386.17 674.903C1624.42 861.33 1998.27 616.956 2170.93 773.531C2281.52 873.915 2261.23 976.347 2242.4 1127.95" stroke="white" stroke-opacity="0.6" stroke-width="0.9758" stroke-miterlimit="10"/>
<path opacity="0.5" d="M1477.06 -5.24902C1477.06 -5.24902 1146.45 496.963 1380.88 690.414C1615.3 883.865 2007.98 618.126 2190.93 770.897C2308.29 868.939 2290.64 970.494 2271.23 1127.07" stroke="white" stroke-opacity="0.6" stroke-miterlimit="10"/>
</g>
</g>
<defs>
<linearGradient id="paint0_linear" x1="1199.18" y1="784.143" x2="1948.68" y2="269.532" gradientUnits="userSpaceOnUse">
<stop stop-color="#F4C5F9"/>
<stop offset="1" stop-color="#564258" stop-opacity="0"/>
</linearGradient>
<linearGradient id="paint1_linear" x1="1522.42" y1="347.29" x2="1976.69" y2="-95.2509" gradientUnits="userSpaceOnUse">
<stop stop-color="#F4C5F9"/>
<stop offset="1" stop-color="#564258" stop-opacity="0"/>
</linearGradient>
<linearGradient id="paint2_linear" x1="1361.5" y1="653.473" x2="1785.64" y2="1125.32" gradientUnits="userSpaceOnUse">
<stop stop-color="#F4C5F9"/>
<stop offset="1" stop-color="#564258" stop-opacity="0"/>
</linearGradient>
<linearGradient id="paint3_linear" x1="1646.94" y1="233.623" x2="1750" y2="-32.9962" gradientUnits="userSpaceOnUse">
<stop stop-color="#F4C5F9"/>
<stop offset="1" stop-color="#564258" stop-opacity="0"/>
</linearGradient>
<linearGradient id="paint4_linear" x1="1022.76" y1="397.709" x2="1158.64" y2="211.217" gradientUnits="userSpaceOnUse">
<stop stop-color="#F4C5F9"/>
<stop offset="1" stop-color="#564258" stop-opacity="0"/>
</linearGradient>
<linearGradient id="paint5_linear" x1="1331.66" y1="957.506" x2="1424.54" y2="830.022" gradientUnits="userSpaceOnUse">
<stop stop-color="#F4C5F9"/>
<stop offset="1" stop-color="#564258" stop-opacity="0"/>
</linearGradient>
<linearGradient id="paint6_linear" x1="1150.12" y1="775.666" x2="1220.57" y2="709.585" gradientUnits="userSpaceOnUse">
<stop stop-color="#F4C5F9"/>
<stop offset="1" stop-color="#564258" stop-opacity="0"/>
</linearGradient>
<linearGradient id="paint7_linear" x1="1689.41" y1="174.97" x2="2005.87" y2="-121.88" gradientUnits="userSpaceOnUse">
<stop stop-color="#F4C5F9"/>
<stop offset="1" stop-color="#564258" stop-opacity="0"/>
</linearGradient>
<linearGradient id="paint8_linear" x1="1311.79" y1="466.317" x2="1358.55" y2="404.632" gradientUnits="userSpaceOnUse">
<stop stop-color="#F4C5F9"/>
<stop offset="1" stop-color="#564258" stop-opacity="0"/>
</linearGradient>
<linearGradient id="paint9_linear" x1="871.155" y1="827.635" x2="941.069" y2="1190.67" gradientUnits="userSpaceOnUse">
<stop stop-color="#F4C5F9"/>
<stop offset="1" stop-color="#564258" stop-opacity="0"/>
</linearGradient>
<clipPath id="clip0">
<rect width="1920" height="1080" fill="white"/>
</clipPath>
</defs>
</svg>
