<svg viewBox="0 0 124.95 35" xmlns="http://www.w3.org/2000/svg"><path d="m13 9h89v17.4h-89z" fill="none"/><g fill="#fff" opacity=".85"><path d="m15.64 13.32v8.93h-2.36v-8.93z"/><path d="m24.05 13.32v2.11h-2.51v6.83h-2.36v-6.83h-2.53v-2.11z"/><path d="m35 13.32v8.93h-2.4v-4.74l-1.91 2.93h-1.36l-1.91-2.94v4.76h-2.36v-8.94h2.23l2.71 4.19 2.72-4.19z"/><path d="m41 13.13a4.45 4.45 0 0 1 4.79 4.66 4.45 4.45 0 0 1 -4.79 4.66 4.45 4.45 0 0 1 -4.79-4.66 4.45 4.45 0 0 1 4.79-4.66zm0 2.17a2.26 2.26 0 0 0 -2.36 2.49 2.36 2.36 0 1 0 4.72 0 2.26 2.26 0 0 0 -2.36-2.49z"/><path d="m47.54 22.37a.65.65 0 1 1 0-1.29.64.64 0 1 1 0 1.29z"/><path d="m53.75 13.17a6.07 6.07 0 0 1 2.68.6v1.07a4.81 4.81 0 0 0 -2.53-.65 3.5 3.5 0 0 0 -3.82 3.6c0 2.69 2 3.6 3.84 3.6a3.91 3.91 0 0 0 1.65-.33v-3.55h1.07v4.3a6.82 6.82 0 0 1 -2.79.6c-2.45 0-4.85-1.25-4.85-4.62a4.51 4.51 0 0 1 4.75-4.62z"/><path d="m57.44 22.26 3.89-8.93h1.19l3.88 8.93h-1.15l-.92-2.16h-4.81l-.92 2.16zm2.5-3.15h4l-1.85-4.34c-.05-.11-.09-.22-.14-.34-.05.13-.09.23-.14.34z"/><path d="m76.89 13.32v8.93h-1.08v-6.9l-3.2 4.8h-.66l-3.2-4.8v6.9h-1.08v-8.93h.92l3.69 5.51 3.72-5.51z"/><path d="m85.26 13.32v1h-5v2.9h4.57v1h-4.53v3h5v1h-6.1v-8.9z"/><path d="m90.08 13.32c3.15 0 4.72 1.89 4.72 4.47s-1.57 4.47-4.72 4.47h-2.94v-8.94zm0 1h-1.86v6.89h1.86c2.41 0 3.64-1.3 3.64-3.45s-1.23-3.42-3.64-3.42z"/><path d="m102.58 13.32v1h-5v2.9h4.57v1h-4.52v3h5v1h-6.1v-8.9z"/><path d="m107.14 22.26-3.7-8.93h1.15l3.1 7.73 3.11-7.73h1.15l-3.7 8.93z"/></g></svg>